<svg id="visual" viewBox="0 0 900 600" width="900" height="600" xmlns="http://www.w3.org/2000/svg" xmlns:xlink="http://www.w3.org/1999/xlink" version="1.1"><path d="M0 265L82 145L164 235L245 265L327 181L409 211L491 139L573 217L655 277L736 193L818 133L900 133L900 0L818 0L736 0L655 0L573 0L491 0L409 0L327 0L245 0L164 0L82 0L0 0Z" fill="#cc002b"></path><path d="M0 349L82 295L164 355L245 391L327 343L409 331L491 325L573 337L655 385L736 313L818 319L900 361L900 131L818 131L736 191L655 275L573 215L491 137L409 209L327 179L245 263L164 233L82 143L0 263Z" fill="#a60049"></path><path d="M0 397L82 379L164 451L245 439L327 409L409 391L491 397L573 439L655 475L736 403L818 355L900 403L900 359L818 317L736 311L655 383L573 335L491 323L409 329L327 341L245 389L164 353L82 293L0 347Z" fill="#731454"></path><path d="M0 523L82 499L164 511L245 487L327 487L409 457L491 463L573 529L655 535L736 499L818 451L900 487L900 401L818 353L736 401L655 473L573 437L491 395L409 389L327 407L245 437L164 449L82 377L0 395Z" fill="#401d4a"></path><path d="M0 601L82 601L164 601L245 601L327 601L409 601L491 601L573 601L655 601L736 601L818 601L900 601L900 485L818 449L736 497L655 533L573 527L491 461L409 455L327 485L245 485L164 509L82 497L0 521Z" fill="#191830"></path></svg>