<svg id="visual" viewBox="0 0 900 600" width="900" height="600" xmlns="http://www.w3.org/2000/svg" xmlns:xlink="http://www.w3.org/1999/xlink" version="1.1"><rect x="0" y="0" width="900" height="600" fill="#fac9c9"></rect><path d="M0 428L21.5 431C43 434 86 440 128.8 435.3C171.7 430.7 214.3 415.3 257.2 412.8C300 410.3 343 420.7 385.8 428.7C428.7 436.7 471.3 442.3 514.2 443.2C557 444 600 440 642.8 424C685.7 408 728.3 380 771.2 375C814 370 857 388 878.5 397L900 406L900 601L878.5 601C857 601 814 601 771.2 601C728.3 601 685.7 601 642.8 601C600 601 557 601 514.2 601C471.3 601 428.7 601 385.8 601C343 601 300 601 257.2 601C214.3 601 171.7 601 128.8 601C86 601 43 601 21.5 601L0 601Z" fill="#6969fa"></path><path d="M0 451L21.5 444C43 437 86 423 128.8 421.7C171.7 420.3 214.3 431.7 257.2 438.8C300 446 343 449 385.8 449.3C428.7 449.7 471.3 447.3 514.2 441.8C557 436.3 600 427.7 642.8 427.2C685.7 426.7 728.3 434.3 771.2 440.8C814 447.3 857 452.7 878.5 455.3L900 458L900 601L878.5 601C857 601 814 601 771.2 601C728.3 601 685.7 601 642.8 601C600 601 557 601 514.2 601C471.3 601 428.7 601 385.8 601C343 601 300 601 257.2 601C214.3 601 171.7 601 128.8 601C86 601 43 601 21.5 601L0 601Z" fill="#5953db"></path><path d="M0 488L21.5 481.8C43 475.7 86 463.3 128.8 459.8C171.7 456.3 214.3 461.7 257.2 460.3C300 459 343 451 385.8 447.8C428.7 444.7 471.3 446.3 514.2 450.2C557 454 600 460 642.8 459.3C685.7 458.7 728.3 451.3 771.2 457.7C814 464 857 484 878.5 494L900 504L900 601L878.5 601C857 601 814 601 771.2 601C728.3 601 685.7 601 642.8 601C600 601 557 601 514.2 601C471.3 601 428.7 601 385.8 601C343 601 300 601 257.2 601C214.3 601 171.7 601 128.8 601C86 601 43 601 21.5 601L0 601Z" fill="#483ebd"></path><path d="M0 507L21.5 506.7C43 506.3 86 505.7 128.8 501.3C171.7 497 214.3 489 257.2 485.7C300 482.3 343 483.7 385.8 493.7C428.7 503.7 471.3 522.3 514.2 523.8C557 525.3 600 509.7 642.8 503.7C685.7 497.7 728.3 501.3 771.2 500.3C814 499.3 857 493.7 878.5 490.8L900 488L900 601L878.5 601C857 601 814 601 771.2 601C728.3 601 685.7 601 642.8 601C600 601 557 601 514.2 601C471.3 601 428.7 601 385.8 601C343 601 300 601 257.2 601C214.3 601 171.7 601 128.8 601C86 601 43 601 21.5 601L0 601Z" fill="#3729a0"></path><path d="M0 538L21.5 543.3C43 548.7 86 559.3 128.8 565.2C171.7 571 214.3 572 257.2 567.5C300 563 343 553 385.8 546C428.7 539 471.3 535 514.2 533.2C557 531.3 600 531.7 642.8 536.5C685.7 541.3 728.3 550.7 771.2 557.5C814 564.3 857 568.7 878.5 570.8L900 573L900 601L878.5 601C857 601 814 601 771.2 601C728.3 601 685.7 601 642.8 601C600 601 557 601 514.2 601C471.3 601 428.7 601 385.8 601C343 601 300 601 257.2 601C214.3 601 171.7 601 128.8 601C86 601 43 601 21.5 601L0 601Z" fill="#251484"></path></svg>