<svg id="visual" viewBox="0 0 900 600" width="900" height="600" xmlns="http://www.w3.org/2000/svg" xmlns:xlink="http://www.w3.org/1999/xlink" version="1.1"><path d="M0 49L13.7 54C27.3 59 54.7 69 82 76C109.3 83 136.7 87 163.8 81C191 75 218 59 245.2 55C272.3 51 299.7 59 327 62C354.3 65 381.7 63 409 58C436.3 53 463.7 45 491 47C518.3 49 545.7 61 573 59C600.3 57 627.7 41 654.8 33C682 25 709 25 736.2 36C763.3 47 790.7 69 818 71C845.3 73 872.7 55 886.3 46L900 37L900 0L886.3 0C872.7 0 845.3 0 818 0C790.7 0 763.3 0 736.2 0C709 0 682 0 654.8 0C627.7 0 600.3 0 573 0C545.7 0 518.3 0 491 0C463.7 0 436.3 0 409 0C381.7 0 354.3 0 327 0C299.7 0 272.3 0 245.2 0C218 0 191 0 163.8 0C136.7 0 109.3 0 82 0C54.7 0 27.3 0 13.7 0L0 0Z" fill="#f9eaea"></path><path d="M0 181L13.7 195C27.3 209 54.7 237 82 257C109.3 277 136.7 289 163.8 280C191 271 218 241 245.2 234C272.3 227 299.7 243 327 236C354.3 229 381.7 199 409 200C436.3 201 463.7 233 491 236C518.3 239 545.7 213 573 182C600.3 151 627.7 115 654.8 107C682 99 709 119 736.2 153C763.3 187 790.7 235 818 258C845.3 281 872.7 279 886.3 278L900 277L900 35L886.3 44C872.7 53 845.3 71 818 69C790.7 67 763.3 45 736.2 34C709 23 682 23 654.8 31C627.7 39 600.3 55 573 57C545.7 59 518.3 47 491 45C463.7 43 436.3 51 409 56C381.7 61 354.3 63 327 60C299.7 57 272.3 49 245.2 53C218 57 191 73 163.8 79C136.7 85 109.3 81 82 74C54.7 67 27.3 57 13.7 52L0 47Z" fill="#f8e6e6"></path><path d="M0 277L13.7 291C27.3 305 54.7 333 82 345C109.3 357 136.7 353 163.8 348C191 343 218 337 245.2 336C272.3 335 299.7 339 327 320C354.3 301 381.7 259 409 259C436.3 259 463.7 301 491 301C518.3 301 545.7 259 573 231C600.3 203 627.7 189 654.8 183C682 177 709 179 736.2 211C763.3 243 790.7 305 818 327C845.3 349 872.7 331 886.3 322L900 313L900 275L886.3 276C872.7 277 845.3 279 818 256C790.7 233 763.3 185 736.2 151C709 117 682 97 654.8 105C627.7 113 600.3 149 573 180C545.7 211 518.3 237 491 234C463.7 231 436.3 199 409 198C381.7 197 354.3 227 327 234C299.7 241 272.3 225 245.2 232C218 239 191 269 163.8 278C136.7 287 109.3 275 82 255C54.7 235 27.3 207 13.7 193L0 179Z" fill="#f7e1e1"></path><path d="M0 343L13.7 353C27.3 363 54.7 383 82 399C109.3 415 136.7 427 163.8 419C191 411 218 383 245.2 376C272.3 369 299.7 383 327 373C354.3 363 381.7 329 409 325C436.3 321 463.7 347 491 346C518.3 345 545.7 317 573 294C600.3 271 627.7 253 654.8 248C682 243 709 251 736.2 285C763.3 319 790.7 379 818 398C845.3 417 872.7 395 886.3 384L900 373L900 311L886.3 320C872.7 329 845.3 347 818 325C790.7 303 763.3 241 736.2 209C709 177 682 175 654.8 181C627.7 187 600.3 201 573 229C545.7 257 518.3 299 491 299C463.7 299 436.3 257 409 257C381.7 257 354.3 299 327 318C299.7 337 272.3 333 245.2 334C218 335 191 341 163.8 346C136.7 351 109.3 355 82 343C54.7 331 27.3 303 13.7 289L0 275Z" fill="#f5dada"></path><path d="M0 493L13.7 502C27.3 511 54.7 529 82 528C109.3 527 136.7 507 163.8 500C191 493 218 499 245.2 502C272.3 505 299.7 505 327 492C354.3 479 381.7 453 409 439C436.3 425 463.7 423 491 424C518.3 425 545.7 429 573 421C600.3 413 627.7 393 654.8 374C682 355 709 337 736.2 362C763.3 387 790.7 455 818 477C845.3 499 872.7 475 886.3 463L900 451L900 371L886.3 382C872.7 393 845.3 415 818 396C790.7 377 763.3 317 736.2 283C709 249 682 241 654.8 246C627.7 251 600.3 269 573 292C545.7 315 518.3 343 491 344C463.7 345 436.3 319 409 323C381.7 327 354.3 361 327 371C299.7 381 272.3 367 245.2 374C218 381 191 409 163.8 417C136.7 425 109.3 413 82 397C54.7 381 27.3 361 13.7 351L0 341Z" fill="#f3d1d0"></path><path d="M0 601L13.7 601C27.3 601 54.7 601 82 601C109.3 601 136.7 601 163.8 601C191 601 218 601 245.2 601C272.3 601 299.7 601 327 601C354.3 601 381.7 601 409 601C436.3 601 463.7 601 491 601C518.3 601 545.7 601 573 601C600.3 601 627.7 601 654.8 601C682 601 709 601 736.2 601C763.3 601 790.7 601 818 601C845.3 601 872.7 601 886.3 601L900 601L900 449L886.3 461C872.7 473 845.3 497 818 475C790.7 453 763.3 385 736.2 360C709 335 682 353 654.8 372C627.7 391 600.3 411 573 419C545.7 427 518.3 423 491 422C463.7 421 436.3 423 409 437C381.7 451 354.3 477 327 490C299.7 503 272.3 503 245.2 500C218 497 191 491 163.8 498C136.7 505 109.3 525 82 526C54.7 527 27.3 509 13.7 500L0 491Z" fill="#f0c7c6"></path></svg>