<svg id="visual" viewBox="0 0 900 600" width="900" height="600" xmlns="http://www.w3.org/2000/svg" xmlns:xlink="http://www.w3.org/1999/xlink" version="1.1"><g stroke-width="1" stroke-linejoin="bevel"><path d="M472 265L536 228L411 203Z" fill="#fff0f0" stroke="#fff0f0"></path><path d="M536 228L506 127L411 203Z" fill="#fff5f5" stroke="#fff5f5"></path><path d="M411 203L401 295L472 265Z" fill="#ffcdcd" stroke="#ffcdcd"></path><path d="M621 308L611 215L536 228Z" fill="#fff0f0" stroke="#fff0f0"></path><path d="M536 228L611 215L506 127Z" fill="#ffffff" stroke="#ffffff"></path><path d="M621 308L536 228L472 265Z" fill="#ffdcdc" stroke="#ffdcdc"></path><path d="M506 127L396 70L411 203Z" fill="#fffafa" stroke="#fffafa"></path><path d="M411 203L295 188L401 295Z" fill="#fff5f5" stroke="#fff5f5"></path><path d="M401 295L437 364L472 265Z" fill="#ffe6e6" stroke="#ffe6e6"></path><path d="M593 371L621 308L472 265Z" fill="#ffd2d2" stroke="#ffd2d2"></path><path d="M284 117L295 188L411 203Z" fill="#fff0f0" stroke="#fff0f0"></path><path d="M401 295L312 374L437 364Z" fill="#ffebeb" stroke="#ffebeb"></path><path d="M697 166L618 79L611 215Z" fill="#ffffff" stroke="#ffffff"></path><path d="M611 215L618 79L506 127Z" fill="#ffe6e6" stroke="#ffe6e6"></path><path d="M506 127L499 0L396 70Z" fill="#ffd7d7" stroke="#ffd7d7"></path><path d="M587 0L499 0L506 127Z" fill="#ffffff" stroke="#ffffff"></path><path d="M499 0L435 0L396 70Z" fill="#ffe6e6" stroke="#ffe6e6"></path><path d="M396 70L284 117L411 203Z" fill="#ffcdcd" stroke="#ffcdcd"></path><path d="M510 412L593 371L472 265Z" fill="#ffd2d2" stroke="#ffd2d2"></path><path d="M299 0L284 117L396 70Z" fill="#ffebeb" stroke="#ffebeb"></path><path d="M437 364L510 412L472 265Z" fill="#ffffff" stroke="#ffffff"></path><path d="M730 139L697 166L766 223Z" fill="#fff5f5" stroke="#fff5f5"></path><path d="M709 321L697 166L611 215Z" fill="#ffffff" stroke="#ffffff"></path><path d="M209 165L269 282L295 188Z" fill="#fff5f5" stroke="#fff5f5"></path><path d="M295 188L269 282L401 295Z" fill="#fff5f5" stroke="#fff5f5"></path><path d="M437 364L416 495L510 412Z" fill="#ffebeb" stroke="#ffebeb"></path><path d="M699 0L587 0L618 79Z" fill="#fff5f5" stroke="#fff5f5"></path><path d="M618 79L587 0L506 127Z" fill="#fffafa" stroke="#fffafa"></path><path d="M269 282L312 374L401 295Z" fill="#ffd2d2" stroke="#ffd2d2"></path><path d="M709 321L611 215L621 308Z" fill="#fff5f5" stroke="#fff5f5"></path><path d="M697 166L730 139L618 79Z" fill="#ffebeb" stroke="#ffebeb"></path><path d="M703 428L709 321L593 371Z" fill="#fff5f5" stroke="#fff5f5"></path><path d="M593 371L709 321L621 308Z" fill="#fff0f0" stroke="#fff0f0"></path><path d="M435 0L299 0L396 70Z" fill="#ffebeb" stroke="#ffebeb"></path><path d="M198 112L209 165L284 117Z" fill="#ffebeb" stroke="#ffebeb"></path><path d="M284 117L209 165L295 188Z" fill="#ffd7d7" stroke="#ffd7d7"></path><path d="M269 282L211 389L312 374Z" fill="#ffebeb" stroke="#ffebeb"></path><path d="M709 321L766 223L697 166Z" fill="#ffffff" stroke="#ffffff"></path><path d="M217 0L198 112L284 117Z" fill="#fff0f0" stroke="#fff0f0"></path><path d="M730 139L699 0L618 79Z" fill="#fff0f0" stroke="#fff0f0"></path><path d="M777 139L699 0L730 139Z" fill="#ffffff" stroke="#ffffff"></path><path d="M312 374L416 495L437 364Z" fill="#ffe1e1" stroke="#ffe1e1"></path><path d="M671 496L703 428L593 371Z" fill="#ffcdcd" stroke="#ffcdcd"></path><path d="M766 223L777 139L730 139Z" fill="#ffcdcd" stroke="#ffcdcd"></path><path d="M576 538L593 371L510 412Z" fill="#ffe6e6" stroke="#ffe6e6"></path><path d="M709 321L796 322L766 223Z" fill="#fff5f5" stroke="#fff5f5"></path><path d="M173 331L269 282L209 165Z" fill="#ffd2d2" stroke="#ffd2d2"></path><path d="M173 331L211 389L269 282Z" fill="#ffcdcd" stroke="#ffcdcd"></path><path d="M312 374L286 530L416 495Z" fill="#fffafa" stroke="#fffafa"></path><path d="M299 0L217 0L284 117Z" fill="#ffd2d2" stroke="#ffd2d2"></path><path d="M416 495L484 529L510 412Z" fill="#ffdcdc" stroke="#ffdcdc"></path><path d="M101 184L173 331L209 165Z" fill="#ffe6e6" stroke="#ffe6e6"></path><path d="M799 390L796 322L709 321Z" fill="#ffe6e6" stroke="#ffe6e6"></path><path d="M766 223L900 180L777 139Z" fill="#ffd7d7" stroke="#ffd7d7"></path><path d="M484 529L576 538L510 412Z" fill="#ffdcdc" stroke="#ffdcdc"></path><path d="M576 538L671 496L593 371Z" fill="#ffd7d7" stroke="#ffd7d7"></path><path d="M703 428L799 390L709 321Z" fill="#fff5f5" stroke="#fff5f5"></path><path d="M820 536L799 390L703 428Z" fill="#fff0f0" stroke="#fff0f0"></path><path d="M80 62L101 184L198 112Z" fill="#fff5f5" stroke="#fff5f5"></path><path d="M198 112L101 184L209 165Z" fill="#ffd2d2" stroke="#ffd2d2"></path><path d="M230 491L286 530L312 374Z" fill="#ffdcdc" stroke="#ffdcdc"></path><path d="M378 600L485 600L484 529Z" fill="#ffd2d2" stroke="#ffd2d2"></path><path d="M484 529L566 600L576 538Z" fill="#fffafa" stroke="#fffafa"></path><path d="M230 491L312 374L211 389Z" fill="#ffebeb" stroke="#ffebeb"></path><path d="M102 472L230 491L211 389Z" fill="#ffcdcd" stroke="#ffcdcd"></path><path d="M78 402L211 389L173 331Z" fill="#fffafa" stroke="#fffafa"></path><path d="M378 600L484 529L416 495Z" fill="#ffe6e6" stroke="#ffe6e6"></path><path d="M576 538L712 600L671 496Z" fill="#ffd2d2" stroke="#ffd2d2"></path><path d="M777 139L833 0L699 0Z" fill="#fff0f0" stroke="#fff0f0"></path><path d="M900 135L833 0L777 139Z" fill="#ffd7d7" stroke="#ffd7d7"></path><path d="M900 180L766 223L900 280Z" fill="#ffffff" stroke="#ffffff"></path><path d="M485 600L566 600L484 529Z" fill="#ffdcdc" stroke="#ffdcdc"></path><path d="M671 496L820 536L703 428Z" fill="#fff0f0" stroke="#fff0f0"></path><path d="M263 600L378 600L286 530Z" fill="#fff5f5" stroke="#fff5f5"></path><path d="M286 530L378 600L416 495Z" fill="#ffcdcd" stroke="#ffcdcd"></path><path d="M97 0L80 62L198 112Z" fill="#ffffff" stroke="#ffffff"></path><path d="M900 280L766 223L796 322Z" fill="#ffe6e6" stroke="#ffe6e6"></path><path d="M900 180L900 135L777 139Z" fill="#ffd7d7" stroke="#ffd7d7"></path><path d="M217 0L97 0L198 112Z" fill="#ffd2d2" stroke="#ffd2d2"></path><path d="M900 423L900 280L796 322Z" fill="#fff5f5" stroke="#fff5f5"></path><path d="M0 230L60 329L101 184Z" fill="#ffcdcd" stroke="#ffcdcd"></path><path d="M101 184L60 329L173 331Z" fill="#ffebeb" stroke="#ffebeb"></path><path d="M60 329L78 402L173 331Z" fill="#ffcdcd" stroke="#ffcdcd"></path><path d="M230 491L263 600L286 530Z" fill="#ffe1e1" stroke="#ffe1e1"></path><path d="M169 600L263 600L230 491Z" fill="#ffd7d7" stroke="#ffd7d7"></path><path d="M78 402L102 472L211 389Z" fill="#fff0f0" stroke="#fff0f0"></path><path d="M566 600L712 600L576 538Z" fill="#ffebeb" stroke="#ffebeb"></path><path d="M799 390L900 423L796 322Z" fill="#ffcdcd" stroke="#ffcdcd"></path><path d="M900 135L900 0L833 0Z" fill="#ffebeb" stroke="#ffebeb"></path><path d="M60 329L0 332L78 402Z" fill="#ffe6e6" stroke="#ffe6e6"></path><path d="M78 402L0 465L102 472Z" fill="#ffffff" stroke="#ffffff"></path><path d="M0 93L0 230L101 184Z" fill="#ffd7d7" stroke="#ffd7d7"></path><path d="M0 93L101 184L80 62Z" fill="#fff0f0" stroke="#fff0f0"></path><path d="M900 467L900 423L799 390Z" fill="#ffe1e1" stroke="#ffe1e1"></path><path d="M712 600L820 536L671 496Z" fill="#ffd2d2" stroke="#ffd2d2"></path><path d="M0 0L0 93L80 62Z" fill="#fffafa" stroke="#fffafa"></path><path d="M0 230L0 332L60 329Z" fill="#ffcdcd" stroke="#ffcdcd"></path><path d="M820 536L900 467L799 390Z" fill="#ffdcdc" stroke="#ffdcdc"></path><path d="M102 472L169 600L230 491Z" fill="#fffafa" stroke="#fffafa"></path><path d="M83 600L169 600L102 472Z" fill="#fff5f5" stroke="#fff5f5"></path><path d="M712 600L787 600L820 536Z" fill="#ffebeb" stroke="#ffebeb"></path><path d="M820 536L900 600L900 467Z" fill="#fff5f5" stroke="#fff5f5"></path><path d="M97 0L0 0L80 62Z" fill="#ffe6e6" stroke="#ffe6e6"></path><path d="M0 332L0 421L78 402Z" fill="#ffdcdc" stroke="#ffdcdc"></path><path d="M0 421L0 465L78 402Z" fill="#ffebeb" stroke="#ffebeb"></path><path d="M0 465L83 600L102 472Z" fill="#ffe6e6" stroke="#ffe6e6"></path><path d="M787 600L900 600L820 536Z" fill="#ffd7d7" stroke="#ffd7d7"></path><path d="M0 465L0 600L83 600Z" fill="#fffafa" stroke="#fffafa"></path></g></svg>